<svg width="24" height="24" viewBox="0 0 24 24" fill="none" xmlns="http://www.w3.org/2000/svg">
<path fill-rule="evenodd" clip-rule="evenodd" d="M12.4963 19.1927C13.3991 19.6106 14.3963 19.8128 15.3935 19.7994C16.0942 19.7994 16.7949 19.732 17.4687 19.6106C18.2233 19.4758 18.9644 19.2601 19.6651 18.9636C19.7594 18.9231 19.7999 18.8422 19.7999 18.7479C19.7978 18.7125 19.7957 18.6762 19.7936 18.6391C19.7819 18.4352 19.7688 18.2054 19.746 17.966C19.7447 17.9388 19.7435 17.9119 19.7423 17.8851C19.7301 17.6202 19.719 17.3776 19.719 17.1571V4.29646C19.7056 4.24253 19.6516 4.18861 19.5843 4.20209H16.8488C16.7545 4.20209 16.714 4.25602 16.714 4.35038V8.61031C16.6392 8.60407 16.5702 8.60072 16.5055 8.59758C16.4305 8.59394 16.3615 8.59059 16.2963 8.58335C16.175 8.56987 16.0807 8.56987 16.0133 8.56987C14.6793 8.56987 13.5474 8.826 12.6041 9.35175C11.7147 9.83706 10.9736 10.565 10.4615 11.4413C9.96293 12.304 9.7069 13.2881 9.72038 14.2857C9.72038 15.5125 9.96293 16.537 10.4615 17.3593C10.9466 18.1547 11.6473 18.8018 12.4963 19.1927ZM16.714 11.1717V17.1032C16.5658 17.1571 16.4041 17.1841 16.2289 17.1706C16.0538 17.1841 15.8651 17.1976 15.663 17.1976C15.2857 17.1976 14.9084 17.1437 14.5445 17.0223C14.1942 16.9145 13.8842 16.7257 13.6282 16.4831C13.3587 16.2135 13.1566 15.8899 13.0218 15.526C12.8601 15.0811 12.7793 14.6093 12.7927 14.1374C12.7927 13.4364 12.941 12.8568 13.2374 12.4254C13.5339 11.994 13.9247 11.657 14.3828 11.4278C14.8545 11.1851 15.38 11.0773 15.9055 11.0773C16.0538 11.0773 16.202 11.0908 16.3502 11.1043C16.4715 11.1177 16.5928 11.1447 16.714 11.1717Z" fill="#1F222E"/>
<path d="M7.60496 19.4219V5.53667C7.60496 5.52319 7.60496 5.50971 7.59148 5.49623C7.57801 5.40186 7.49716 5.34794 7.41631 5.36142H4.78863C4.66735 5.36142 4.59998 5.41534 4.59998 5.53667V19.4219C4.59998 19.5702 4.65388 19.6376 4.77515 19.6376H7.41631C7.53758 19.6376 7.60496 19.5702 7.60496 19.4219Z" fill="#1F222E"/>
</svg>
