<svg width="24" height="24" viewBox="0 0 24 24" fill="none" xmlns="http://www.w3.org/2000/svg">
<path fill-rule="evenodd" clip-rule="evenodd" d="M3 4.82981V18.7403C3 18.862 3.05263 18.9161 3.15789 18.9161H5.71037C5.80247 18.9025 5.86826 18.8214 5.8551 18.7268V14.3874C6.10508 14.3874 6.28929 14.3874 6.42086 14.4009C6.55243 14.4144 6.76294 14.4144 7.07871 14.4144C8.1576 14.4144 9.14438 14.2927 10.0391 13.9548C10.8943 13.6303 11.6311 13.0626 12.1574 12.3055C12.6837 11.5485 12.9468 10.5887 12.9468 9.42609C12.9468 8.81776 12.8415 8.23647 12.6442 7.66869C12.4337 7.0874 12.1047 6.56018 11.6837 6.12759C11.1837 5.6274 10.5785 5.24888 9.92066 5.01907C9.18386 4.73518 8.28917 4.6 7.21029 4.6C6.81557 4.6 6.42086 4.6 6.01299 4.61352C5.81607 4.62004 5.6253 4.62342 5.44065 4.62669C5.24283 4.63019 5.05205 4.63356 4.86831 4.64055C4.69602 4.64711 4.52991 4.65049 4.36849 4.65377C4.1971 4.65725 4.03099 4.66063 3.86837 4.66759C3.56576 4.68111 3.35525 4.68111 3.13158 4.68111C3.03948 4.68111 3 4.73518 3 4.82981ZM5.86826 11.8324V7.29017C5.96036 7.27666 6.14456 7.26314 6.4077 7.27666C6.65769 7.26314 6.9603 7.26314 7.30238 7.26314C7.84183 7.24962 8.36811 7.33073 8.85493 7.53351C9.23649 7.68221 9.55226 7.95258 9.77593 8.30406C9.98644 8.66906 10.0917 9.08813 10.0785 9.5072C10.0785 10.102 9.94697 10.5616 9.67067 10.8996C9.38121 11.2376 9.01281 11.4944 8.59178 11.6161C8.10497 11.7783 7.59184 11.8594 7.07871 11.8594H6.38138C6.23483 11.8594 6.07693 11.8478 5.9077 11.8353C5.89462 11.8343 5.88147 11.8334 5.86826 11.8324Z" fill="#1F222E"/>
<path d="M19.8937 10.5482C20.3411 10.6428 20.7621 10.7915 21.1568 11.0078C21.2095 11.0348 21.2752 11.0348 21.3937 11.0078C21.4331 10.9807 21.4594 10.9267 21.4594 10.8726V8.66909C21.4594 8.61502 21.4463 8.56094 21.4331 8.50687C21.4068 8.4528 21.3542 8.39872 21.3016 8.3852C20.9463 8.2365 20.5648 8.12835 20.17 8.07428C19.6306 7.99317 19.078 7.95261 18.5386 7.95261C17.6044 7.95261 16.8281 8.10132 16.2097 8.42576C15.644 8.69613 15.1572 9.12872 14.8282 9.66946C14.5388 10.1696 14.3809 10.7239 14.3809 11.3052C14.3677 11.7783 14.473 12.2515 14.6835 12.6841C14.9335 13.1437 15.2756 13.5357 15.6835 13.8331C16.2624 14.2387 16.8808 14.5631 17.5518 14.8065C18.1965 15.0633 18.6307 15.2661 18.8412 15.4418C19.0517 15.6176 19.1569 15.7933 19.1569 15.9826C19.1569 16.2259 19.0122 16.4557 18.8017 16.5504C18.5649 16.672 18.2096 16.7396 17.7097 16.7396C17.1834 16.7396 16.6571 16.672 16.1571 16.5368C15.5782 16.4017 15.0388 16.1854 14.5256 15.8744C14.4862 15.8474 14.4467 15.8339 14.4072 15.8609C14.3677 15.888 14.3546 15.942 14.3546 15.9826V18.3348C14.3414 18.4429 14.4072 18.5376 14.4993 18.5916C14.9203 18.7944 15.3808 18.9431 15.8413 19.0242C16.4334 19.1459 17.0255 19.2 17.6307 19.2C18.578 19.2 19.3675 19.0513 20.0122 18.7674C20.6042 18.5241 21.1174 18.105 21.4858 17.5642C21.8278 17.037 22.012 16.4017 21.9989 15.7663C22.012 15.2796 21.9068 14.8065 21.6963 14.3739C21.4463 13.9143 21.091 13.5357 20.6569 13.2519C20.0253 12.8463 19.3411 12.5083 18.6307 12.265C18.3149 12.1298 17.9991 11.9811 17.6965 11.8189C17.5255 11.7243 17.3676 11.6026 17.2492 11.4539C17.1702 11.3457 17.1176 11.2241 17.1176 11.1024C17.1176 10.9807 17.1571 10.8456 17.2228 10.7374C17.3149 10.6022 17.4597 10.5076 17.6307 10.467C17.8807 10.3995 18.157 10.3589 18.4201 10.3724C18.9201 10.3724 19.4069 10.44 19.8937 10.5482Z" fill="#1F222E"/>
</svg>
