<svg width="24" height="24" viewBox="0 0 24 24" fill="none" xmlns="http://www.w3.org/2000/svg">
<path fill-rule="evenodd" clip-rule="evenodd" d="M3 4.8339V18.9919C3 19.1158 3.05499 19.1708 3.16498 19.1708H5.83213C5.92837 19.157 5.99711 19.0745 5.98336 18.9782V14.5615C6.24458 14.5615 6.43706 14.5615 6.57454 14.5753C6.71201 14.589 6.93196 14.589 7.26188 14.589C8.38924 14.589 9.42042 14.4652 10.3553 14.1212C11.2489 13.791 12.0188 13.2131 12.5688 12.4426C13.1187 11.6721 13.3937 10.6952 13.3937 9.51197C13.3937 8.89281 13.2837 8.30117 13.0774 7.7233C12.8575 7.13166 12.5138 6.59506 12.0738 6.15477C11.5514 5.64568 10.919 5.26043 10.2316 5.02653C9.46167 4.73759 8.52679 4.6 7.39943 4.6C6.98699 4.6 6.57454 4.6 6.14834 4.61376C5.94259 4.6204 5.74324 4.62384 5.55029 4.62716C5.34359 4.63072 5.14424 4.63416 4.95225 4.64128C4.77221 4.64795 4.59864 4.65139 4.42997 4.65473C4.25088 4.65827 4.07731 4.66171 3.90738 4.66879C3.59117 4.68255 3.3712 4.68255 3.13748 4.68255C3.04124 4.68255 3 4.73759 3 4.8339ZM5.99711 11.9748V7.3518C6.09335 7.33804 6.28583 7.32428 6.56079 7.33804C6.822 7.32428 7.13821 7.32428 7.49565 7.32428C8.05933 7.31052 8.60928 7.39308 9.11796 7.59946C9.51666 7.75081 9.84662 8.02599 10.0803 8.38373C10.3003 8.75522 10.4103 9.18175 10.3965 9.60828C10.3965 10.2137 10.2591 10.6815 9.97035 11.0255C9.66789 11.3694 9.28294 11.6309 8.843 11.7547C8.33431 11.9198 7.79813 12.0024 7.26195 12.0024H6.53329C6.38016 12.0024 6.21517 11.9905 6.03834 11.9778C6.02467 11.9768 6.01093 11.9758 5.99711 11.9748Z" fill="#1F222E"/>
<path d="M17.7793 8.16353H15.3734C15.3596 8.14977 15.3321 8.14977 15.3321 8.16353C15.2634 8.17729 15.2222 8.24608 15.2359 8.31488L15.2392 8.35285C15.2656 8.65561 15.2909 8.94671 15.2909 9.25049C15.2978 9.42936 15.3012 9.60822 15.3047 9.78709C15.3081 9.96596 15.3115 10.1448 15.3184 10.3237C15.3321 10.6814 15.3321 11.0254 15.3321 11.3556V19.0332C15.3459 19.1432 15.4421 19.212 15.5521 19.1983H18.2605C18.3843 19.1983 18.4392 19.1432 18.4392 19.0056V11.9885C18.6317 11.7684 18.8792 11.6033 19.1404 11.4795C19.5116 11.3143 19.8966 11.1905 20.2953 11.108C20.7764 10.9979 21.2851 10.9566 21.7801 10.9704C21.9313 10.9704 22 10.9291 22 10.819V8.08097C21.9863 7.98466 21.9038 7.91586 21.8076 7.92962C21.0789 7.92962 20.3503 8.10849 19.7178 8.46623C19.1542 8.76892 18.6592 9.16794 18.2468 9.6495C18.2468 9.47063 18.233 9.30553 18.2193 9.15418C18.2055 9.01659 18.178 8.86524 18.1505 8.72765C18.1368 8.60382 18.1093 8.49374 18.068 8.38367C18.0268 8.25984 17.9168 8.16353 17.7793 8.16353Z" fill="#1F222E"/>
</svg>
