<svg width="24" height="24" viewBox="0 0 24 24" fill="none" xmlns="http://www.w3.org/2000/svg">
<path fill-rule="evenodd" clip-rule="evenodd" d="M15.7827 18.4317C16.6254 18.8228 17.5562 19.012 18.487 18.9994C19.141 18.9994 19.7825 18.9363 20.424 18.8228C21.1283 18.6966 21.8201 18.4947 22.4742 18.2172C22.5622 18.1793 22.5999 18.1036 22.5999 18.0153C22.598 17.9823 22.5961 17.9483 22.5941 17.9136C22.5832 17.7228 22.5709 17.5077 22.5496 17.2835C22.5485 17.2581 22.5473 17.2329 22.5462 17.208C22.5348 16.96 22.5245 16.7329 22.5245 16.5265V4.49028C22.5119 4.43981 22.4616 4.38935 22.3987 4.40196H19.8454C19.7573 4.40196 19.7196 4.45243 19.7196 4.54075V8.5276C19.6498 8.52176 19.5853 8.51863 19.525 8.51569C19.455 8.51228 19.3905 8.50915 19.3297 8.50237C19.2165 8.48975 19.1284 8.48975 19.0656 8.48975C17.8203 8.48975 16.7638 8.72947 15.8833 9.22152C15.0532 9.67572 14.3614 10.357 13.8835 11.1771C13.4181 11.9846 13.1791 12.9056 13.1917 13.8392C13.1917 14.9873 13.4181 15.9462 13.8835 16.7158C14.3363 17.4602 14.9903 18.0658 15.7827 18.4317ZM19.7196 10.9248V16.4761C19.5687 16.5266 19.4303 16.5518 19.2668 16.5392C19.1033 16.5518 18.9272 16.5644 18.7385 16.5644C18.3863 16.5644 18.0342 16.5139 17.6946 16.4004C17.3675 16.2994 17.0782 16.1228 16.8393 15.8957C16.5877 15.6434 16.399 15.3406 16.2733 14.9999C16.1223 14.5836 16.0469 14.142 16.0594 13.7004C16.0594 13.0444 16.1978 12.5018 16.4745 12.0981C16.7512 11.6944 17.116 11.379 17.5436 11.1645C17.9839 10.9374 18.4744 10.8364 18.9649 10.8364C19.1033 10.8364 19.2416 10.8491 19.38 10.8617C19.4932 10.8743 19.6064 10.8995 19.7196 10.9248Z" fill="#1F222E"/>
<path d="M8.90255 11.9341L12.6759 5.68886C12.7011 5.66363 12.7262 5.61316 12.7136 5.60055C12.7011 5.53746 12.6382 5.49961 12.5753 5.51223H9.92135C9.85847 5.49961 9.80815 5.51223 9.75784 5.53746C9.72011 5.5627 9.69495 5.61316 9.68237 5.66363C9.56945 5.87472 9.45653 6.09002 9.34275 6.30695C9.17772 6.62159 9.01089 6.93967 8.83966 7.25333C8.55036 7.78322 8.26107 8.31312 7.98436 8.84302C7.70765 9.37292 7.43093 9.91544 7.1668 10.4706H7.14164C6.87751 9.92805 6.60079 9.39815 6.29893 8.86826C6.04158 8.43458 5.80108 8.0009 5.55674 7.5603C5.50253 7.46255 5.44813 7.36445 5.39332 7.26594C5.10403 6.72343 4.82731 6.18091 4.58833 5.6384C4.5506 5.58793 4.51287 5.55008 4.46256 5.52485C4.41224 5.51223 4.34935 5.49961 4.28647 5.49961H1.43129C1.38098 5.49961 1.33066 5.51223 1.30551 5.55008C1.28035 5.57531 1.29293 5.62578 1.33066 5.67625L5.14176 12.1486L1.23004 18.5831C1.20489 18.6209 1.19231 18.6714 1.20489 18.7218C1.20489 18.7696 1.22647 18.7668 1.25876 18.7626C1.26916 18.7612 1.28067 18.7597 1.29293 18.7597H4.06006C4.19842 18.7597 4.29904 18.7471 4.34935 18.6209C4.54221 18.2761 4.73507 17.92 4.92792 17.5639C5.02436 17.3859 5.12079 17.2079 5.21723 17.0312C5.49394 16.5013 5.78323 15.9588 6.07252 15.4163C6.36181 14.8738 6.65111 14.3313 6.91524 13.7887H6.9404C7.24222 14.3438 7.54405 14.8862 7.84587 15.4287C8.14774 15.9712 8.43716 16.5013 8.7013 17.0186C8.83337 17.2836 8.96858 17.5453 9.10379 17.8071C9.239 18.0689 9.37422 18.3307 9.50628 18.5957C9.59433 18.7218 9.73269 18.7345 9.93393 18.7345H12.8143C12.8434 18.7296 12.8688 18.7322 12.8897 18.7344C12.923 18.7379 12.9449 18.7402 12.9526 18.7092C12.9652 18.6588 12.9526 18.6083 12.9275 18.5578L8.90255 11.9341Z" fill="#1F222E"/>
</svg>
