<svg width="24" height="24" viewBox="0 0 24 24" fill="none" xmlns="http://www.w3.org/2000/svg">
<g clip-path="url(#clip0_205_1384)">
<path fill-rule="evenodd" clip-rule="evenodd" d="M4.03067 15.2871H9.11176V15.2189L10.2318 18.4932C10.2591 18.5887 10.3547 18.6569 10.4503 18.6433H13.305C13.4416 18.6433 13.4826 18.5751 13.4416 18.425L8.45613 4.50915C8.44247 4.44093 8.37418 4.4 8.27857 4.4H4.74093C4.67263 4.41364 4.618 4.48186 4.63166 4.55007C4.63166 4.85022 4.60434 5.15037 4.5497 5.43687C4.49507 5.60057 4.45409 5.72338 4.41311 5.8598L0.014964 18.4523C-0.0260125 18.616 0.0149641 18.6979 0.165211 18.6979H2.73308C2.85601 18.7115 2.96528 18.6296 2.99259 18.5069L4.03067 15.2871ZM8.29223 12.5722H4.82288C5.02776 11.9991 5.2463 11.3579 5.42387 10.6621C5.55917 10.2398 5.68923 9.81751 5.8173 9.40167C5.89609 9.14582 5.97413 8.89241 6.05218 8.64297C6.2434 8.05632 6.39365 7.46967 6.51658 6.88303H6.54389C6.59719 7.06555 6.65049 7.25656 6.70616 7.45605C6.75035 7.61442 6.79603 7.77812 6.84439 7.94718C6.95366 8.34282 7.07659 8.73847 7.21318 9.1614C7.28147 9.37287 7.34635 9.58092 7.41123 9.78898C7.47611 9.99704 7.54099 10.2051 7.60928 10.4166C7.73221 10.8258 7.85514 11.2215 7.97807 11.5899C8.101 11.9446 8.21027 12.2856 8.29223 12.5722Z" fill="#1F222E"/>
<path fill-rule="evenodd" clip-rule="evenodd" d="M17.157 14.0592H21.4869C21.6699 14.0592 21.8456 14.0737 22.016 14.0877C22.1762 14.101 22.3317 14.1138 22.484 14.1138C22.7981 14.1138 23.0577 14.1001 23.2762 14.0728C23.3529 14.0681 23.4212 14.0633 23.4811 14.0591C23.5918 14.0513 23.6738 14.0456 23.7269 14.0456C23.8225 14.0456 23.9045 13.9637 23.9182 13.8682C23.9242 13.8135 23.9303 13.7453 23.9376 13.6636C23.9467 13.5618 23.9576 13.439 23.9728 13.2952C23.9865 13.036 24.0001 12.7495 24.0001 12.422C24.0001 11.8627 23.9182 11.3033 23.7406 10.7576C23.563 10.1846 23.2762 9.66617 22.9211 9.2023C22.5386 8.7248 22.0469 8.35644 21.4869 8.11087C20.8176 7.81072 20.0937 7.67429 19.3698 7.68793C18.4956 7.68793 17.7307 7.79708 17.0887 8.11087C16.4468 8.42465 15.8868 8.86123 15.436 9.40695C14.9716 9.96631 14.6301 10.5939 14.4116 11.276C14.1794 11.9855 14.0701 12.7086 14.0701 13.4453C14.0701 14.1274 14.1657 14.7959 14.357 15.4371C14.5482 16.092 14.8623 16.6923 15.2994 17.2244C15.7638 17.7837 16.3512 18.234 17.0204 18.5205C17.7307 18.8342 18.6049 18.998 19.6429 18.998C20.2986 19.0116 20.9405 18.957 21.5825 18.8342C22.0606 18.7524 22.5113 18.616 22.9484 18.425C22.9894 18.3977 23.0167 18.3704 23.044 18.3295C23.0577 18.2749 23.0713 18.2203 23.0713 18.1657V16.0784C23.0713 15.9419 23.0303 15.9147 22.962 15.9692C22.5796 16.1193 22.1698 16.2284 21.7464 16.283C21.282 16.3785 20.8039 16.4194 20.3259 16.4331C19.7249 16.4467 19.1239 16.3239 18.5776 16.092C18.1678 15.9283 17.8263 15.6418 17.5805 15.2734C17.3483 14.9051 17.2117 14.4821 17.157 14.0592ZM20.039 12.0673H17.157C17.198 11.7263 17.2936 11.3988 17.4575 11.085C17.8127 10.4029 18.5229 10.0072 19.2742 10.0482C20.08 10.0209 20.8039 10.5393 21.0498 11.3033C21.1044 11.467 21.1318 11.6308 21.1318 11.8081V11.9445C21.0361 12.0128 20.9269 12.04 20.8176 12.0537C20.6537 12.0673 20.3942 12.0673 20.039 12.0673Z" fill="#1F222E"/>
</g>
<defs>
<clipPath id="clip0_205_1384">
<rect width="24" height="24" fill="white"/>
</clipPath>
</defs>
</svg>
