<svg xmlns="http://www.w3.org/2000/svg" viewBox="0 0 91.99 95.05" aria-hidden="true">
  <path fill="#fff" d="M0,83.76c-.02,6.21,5,11.27,11.21,11.29,3,.01,5.87-1.17,7.99-3.29l35.9-35.93c2.12-2.12,3.31-5,3.29-8v-.37c.11-3.11-1.08-6.12-3.28-8.32L19.21,3.3c-4.39-4.39-11.52-4.39-15.91,0s-4.39,11.52,0,15.91l28.3,28.3L3.3,75.81C1.19,77.91,0,80.77,0,83.76Z"/>
  <path fill="#fff" d="M81.01,0h0c6.06,0,10.98,4.92,10.98,10.98v73.04c0,6.06-4.92,10.98-10.98,10.98h0c-6.06,0-10.98-4.92-10.98-10.98V10.99C70.03,4.92,74.95,0,81.01,0Z"/>
</svg>
